HIERARCHY
ROOT hip
{
  OFFSET 0 0 0
  CHANNELS 6 Xposition Yposition Zposition Zrotation Yrotation Xrotation
  JOINT abdomen
  {
    OFFSET 0 20.6881 -0.73152
    CHANNELS 3 Zrotation Xrotation Yrotation
    JOINT chest
    {
      OFFSET 0 11.7043 -0.48768
      CHANNELS 3 Zrotation Xrotation Yrotation
      JOINT neck
      {
        OFFSET 0 22.1894 -2.19456
        CHANNELS 3 Zrotation Xrotation Yrotation
        JOINT head
        {
          OFFSET -0.24384 7.07133 1.2192
          CHANNELS 3 Zrotation Xrotation Yrotation
          JOINT leftEye
          {
            OFFSET 4.14528 8.04674 8.04672
            CHANNELS 3 Zrotation Xrotation Yrotation
            End Site
            {
              OFFSET 1 0 0
            }
          }
          JOINT rightEye
          {
            OFFSET -3.6576 8.04674 8.04672
            CHANNELS 3 Zrotation Xrotation Yrotation
            End Site
            {
              OFFSET 1 0 0
            }
          }
        }
      }
      JOINT rCollar
      {
        OFFSET -2.68224 19.2634 -4.8768
        CHANNELS 3 Zrotation Xrotation Yrotation
        JOINT rShldr
        {
          OFFSET -8.77824 -1.95073 1.46304
          CHANNELS 3 Zrotation Xrotation Yrotation
          JOINT rForeArm
          {
            OFFSET -28.1742 -1.7115 0.48768
            CHANNELS 3 Zrotation Xrotation Yrotation
            JOINT rHand
            {
              OFFSET -22.5879 0.773209 7.07136
              CHANNELS 3 Zrotation Xrotation Yrotation
              JOINT rThumb1
              {
                OFFSET -1.2192 -0.487915 3.41376
                CHANNELS 3 Zrotation Xrotation Yrotation
                JOINT rThumb2
                {
                  OFFSET -3.37035 -0.52449 3.41376
                  CHANNELS 3 Zrotation Xrotation Yrotation
                  End Site
                  {
                    OFFSET -1.78271 -1.18214 1.43049
                  }
                }
              }
              JOINT rIndex1
              {
                OFFSET -7.75947 0.938293 5.60832
                CHANNELS 3 Zrotation Xrotation Yrotation
                JOINT rIndex2
                {
                  OFFSET -2.54057 -0.884171 1.56538
                  CHANNELS 3 Zrotation Xrotation Yrotation
                  End Site
                  {
                    OFFSET -1.62519 -0.234802 1.16502
                  }
                }
              }
              JOINT rMid1
              {
                OFFSET -8.24714 1.18213 3.41376
                CHANNELS 3 Zrotation Xrotation Yrotation
                JOINT rMid2
                {
                  OFFSET -3.10165 -0.590103 1.0647
                  CHANNELS 3 Zrotation Xrotation Yrotation
                  End Site
                  {
                    OFFSET -2.48547 -0.328903 0.83742
                  }
                }
              }
              JOINT rRing1
              {
                OFFSET -8.82822 0.546677 1.51678
                CHANNELS 3 Zrotation Xrotation Yrotation
                JOINT rRing2
                {
                  OFFSET -2.60934 -0.819778 -0.0198488
                  CHANNELS 3 Zrotation Xrotation Yrotation
                  End Site
                  {
                    OFFSET -2.33842 -0.294052 0.168128
                  }
                }
              }
              JOINT rPinky1
              {
                OFFSET -8.27202 -0.0477905 -0.4584
                CHANNELS 3 Zrotation Xrotation Yrotation
                JOINT rPinky2
                {
                  OFFSET -1.82734 -0.647385 -0.700984
                  CHANNELS 3 Zrotation Xrotation Yrotation
                  End Site
                  {
                    OFFSET -1.69225 -0.51767 -0.607171
                  }
                }
              }
            }
          }
        }
      }
      JOINT lCollar
      {
        OFFSET 2.68224 19.2634 -4.8768
        CHANNELS 3 Zrotation Xrotation Yrotation
        JOINT lShldr
        {
          OFFSET 8.77824 -1.95073 1.46304
          CHANNELS 3 Zrotation Xrotation Yrotation
          JOINT lForeArm
          {
            OFFSET 28.1742 -1.7115 0.48768
            CHANNELS 3 Zrotation Xrotation Yrotation
            JOINT lHand
            {
              OFFSET 22.5879 0.773209 7.07136
              CHANNELS 3 Zrotation Xrotation Yrotation
              JOINT lThumb1
              {
                OFFSET 1.2192 -0.487915 3.41376
                CHANNELS 3 Zrotation Xrotation Yrotation
                JOINT lThumb2
                {
                  OFFSET 3.37035 -0.52449 3.41376
                  CHANNELS 3 Zrotation Xrotation Yrotation
                  End Site
                  {
                    OFFSET 1.78271 -1.18214 1.43049
                  }
                }
              }
              JOINT lIndex1
              {
                OFFSET 7.75947 0.938293 5.60832
                CHANNELS 3 Zrotation Xrotation Yrotation
                JOINT lIndex2
                {
                  OFFSET 2.54057 -0.884171 1.56538
                  CHANNELS 3 Zrotation Xrotation Yrotation
                  End Site
                  {
                    OFFSET 1.62519 -0.234802 1.16502
                  }
                }
              }
              JOINT lMid1
              {
                OFFSET 8.24714 1.18213 3.41376
                CHANNELS 3 Zrotation Xrotation Yrotation
                JOINT lMid2
                {
                  OFFSET 3.10165 -0.590103 1.0647
                  CHANNELS 3 Zrotation Xrotation Yrotation
                  End Site
                  {
                    OFFSET 2.48547 -0.328903 0.83742
                  }
                }
              }
              JOINT lRing1
              {
                OFFSET 8.82822 0.546677 1.51678
                CHANNELS 3 Zrotation Xrotation Yrotation
                JOINT lRing2
                {
                  OFFSET 2.60934 -0.819778 -0.0198488
                  CHANNELS 3 Zrotation Xrotation Yrotation
                  End Site
                  {
                    OFFSET 2.33842 -0.294052 0.168128
                  }
                }
              }
              JOINT lPinky1
              {
                OFFSET 8.27202 -0.0477905 -0.4584
                CHANNELS 3 Zrotation Xrotation Yrotation
                JOINT lPinky2
                {
                  OFFSET 1.82734 -0.647385 -0.700984
                  CHANNELS 3 Zrotation Xrotation Yrotation
                  End Site
                  {
                    OFFSET 1.69225 -0.51767 -0.607171
                  }
                }
              }
            }
          }
        }
      }
    }
  }
  JOINT rButtock
  {
    OFFSET -8.77824 4.35084 1.2192
    CHANNELS 3 Zrotation Xrotation Yrotation
    JOINT rThigh
    {
      OFFSET 0 -1.70687 -2.19456
      CHANNELS 3 Zrotation Xrotation Yrotation
      JOINT rShin
      {
        OFFSET 0 -36.8199 0.73152
        CHANNELS 3 Zrotation Xrotation Yrotation
        JOINT rFoot
        {
          OFFSET 0.73152 -45.1104 -5.12064
          CHANNELS 3 Zrotation Xrotation Yrotation
          End Site
          {
            OFFSET -1.1221 -3.69964 12.103
          }
        }
      }
    }
  }
  JOINT lButtock
  {
    OFFSET 8.77824 4.35084 1.2192
    CHANNELS 3 Zrotation Xrotation Yrotation
    JOINT lThigh
    {
      OFFSET 0 -1.70687 -2.19456
      CHANNELS 3 Zrotation Xrotation Yrotation
      JOINT lShin
      {
        OFFSET 0 -36.8199 0.73152
        CHANNELS 3 Zrotation Xrotation Yrotation
        JOINT lFoot
        {
          OFFSET -0.73152 -45.1104 -5.12064
          CHANNELS 3 Zrotation Xrotation Yrotation
          End Site
          {
            OFFSET 1.1221 -3.69964 12.103
          }
        }
      }
    }
  }
}
MOTION
Frames:	4
Frame Time:	0.03333
-35.1245 64.5794 -157.65900000000002 -162.05398559570312 -65.62490844726562 162.84996032714844 -0.08775799721479416 11.393500328063965 13.964797973632812 0.11663900315761566 -13.266300201416016 3.9100406169891357 -0.1840900182723999 13.313799858093262 9.85984992980957 5.473709583282471 -20.457298278808594 20.276094436645508 -0.0 0.0 -0.0 -0.0 0.0 -0.0 -3.298809793036983e-14 -1.4410699196443222e-12 -2.304260027143762e-13 49.07809829711914 81.6222152709961 14.176100730895996 -26.356597900390625 -45.54850387573242 94.59569549560547 -47.419097900390625 -80.26812744140625 -55.030094146728516 2.088520023590945e-09 4.14742962195902e-10 -1.029899943105761e-09 3.6401097691651785e-09 9.87663950624551e-10 -1.6173898886862048e-09 2.088529793553562e-09 4.147379939478668e-10 -1.029910046135285e-09 7.730909824371338 5.474879741668701 0.4173140823841095 2.088520023590945e-09 4.1474498835292195e-10 -1.029910046135285e-09 2.9055399894714355 0.9651829600334167 0.10290199518203735 2.088529793553562e-09 4.147409915500333e-10 -1.029910046135285e-09 10.27859878540039 0.73180091381073 0.025912316516041756 2.088520023590945e-09 4.14742962195902e-10 -1.029899943105761e-09 2.221669912338257 -0.733487069606781 -0.208919957280159 -3.3011699656412125e-14 -1.4410699196443222e-12 -2.306799770732809e-13 -66.72660064697266 8.260747909545898 -35.234806060791016 28.433000564575195 -35.8236083984375 -76.7135009765625 0.46048295497894287 18.926300048828125 -2.7621395587921143 5.756899401632154e-10 -2.353939820842754e-10 -1.9721099753233773e-10 9.87373960370519e-10 -4.0586098370987145e-10 -3.5007799437103415e-10 5.756620180541461e-10 -2.353839900770538e-10 -1.9718598975870805e-10 -7.730909824371338 5.474879741668701 -0.4173140823841095 5.75691994075811e-10 -2.353889860806646e-10 -1.9720498845021694e-10 -2.9055399894714355 0.9651829600334167 -0.10290199518203735 5.756810028678672e-10 -2.353889860806646e-10 -1.972089991308934e-10 -10.27859878540039 0.73180091381073 -0.025912316516041756 5.756889964736445e-10 -2.3539298288355326e-10 -1.9721799193739287e-10 -2.221669912338257 -0.733487069606781 0.208919957280159 -2.0321699480147914e-16 0.0 -3.8825099822884138e-19 -14.164600372314453 -36.82350158691406 -24.92030143737793 -6.5648193359375 82.66130828857422 7.834210395812988 -18.362398147583008 -23.26300048828125 -29.049697875976562 2.0321699480147914e-16 0.0 3.8825099822884138e-19 72.68399047851562 -41.817100524902344 69.37239837646484 2.2316997051239014 69.9747085571289 -2.0982797145843506 0.3010159432888031 4.4980998039245605 -2.333899736404419
-35.23009999999999 64.44750000000002 -157.73599999999996 -162.08799743652344 -65.53489685058594 162.90000915527344 -0.03625189885497093 11.332200050354004 13.93549919128418 0.12342698872089386 -13.290300369262695 3.9031500816345215 -0.2137729972600937 13.259401321411133 9.891210556030273 5.522900104522705 -20.247798919677734 20.330001831054688 -0.0 0.0 -0.0 -0.0 0.0 -0.0 -1.3424199631680706e-13 1.896669805804066e-13 -2.1302196931329703e-13 48.69719696044922 81.6665267944336 14.554200172424316 -26.36539649963379 -45.52970886230469 94.55648803710938 -47.539493560791016 -80.28231811523438 -55.152103424072266 1.890430034734436e-09 1.034470065164328e-09 -4.1785994109311275e-10 3.2603499899863664e-09 1.9949100149574406e-09 -5.943189829160644e-10 1.890430034734436e-09 1.034470065164328e-09 -4.1787595606024297e-10 7.730909824371338 5.474879741668701 0.4173140823841095 1.890430034734436e-09 1.034479946149247e-09 -4.1786599180859696e-10 2.9055399894714355 0.9651829600334167 0.10290199518203735 1.8904400267416577e-09 1.034470065164328e-09 -4.178700163670612e-10 10.27859878540039 0.73180091381073 0.025912316516041756 1.890430034734436e-09 1.034470065164328e-09 -4.178679902100413e-10 2.221669912338257 -0.733487069606781 -0.208919957280159 -1.341299982323893e-13 1.8965299437238153e-13 -2.1314799426332132e-13 -66.75759887695312 8.098329544067383 -35.06480407714844 28.433198928833008 -35.864601135253906 -76.77949523925781 0.46636199951171875 19.04119873046875 -2.780219554901123 -9.563110303645317e-10 4.658969876558672e-10 7.512489519356791e-10 -1.6491700227661e-09 8.100619619533234e-10 1.3174100699231417e-09 -9.563480007912517e-10 4.659119756666996e-10 7.512879762749947e-10 -7.730909824371338 5.474879741668701 -0.4173140823841095 -9.563100311638095e-10 4.659009844587558e-10 7.512509503371234e-10 -2.9055399894714355 0.9651829600334167 -0.10290199518203735 -9.56319023970309e-10 4.659039820609223e-10 7.512509503371234e-10 -10.27859878540039 0.73180091381073 -0.025912316516041756 -9.563090319630874e-10 4.659009844587558e-10 7.512400146403309e-10 -2.221669912338257 -0.733487069606781 0.208919957280159 -2.0321699480147914e-16 0.0 -3.8825099822884138e-19 -14.206599235534668 -36.84600067138672 -24.932100296020508 -6.808019638061523 82.89962768554688 8.091381072998047 -18.54340171813965 -23.250499725341797 -29.303897857666016 2.0321699480147914e-16 0.0 3.8825099822884138e-19 72.97469329833984 -41.74530029296875 69.57039642333984 2.284359931945801 70.30139923095703 -2.1505796909332275 0.2893909811973572 4.307600021362305 -2.2983102798461914
-35.3235 64.316 -157.774 -162.239990234375 -65.56019592285156 163.0800018310547 0.006810459773987532 11.244400978088379 13.905799865722656 0.13414500653743744 -13.309601783752441 3.8962700366973877 -0.21010898053646088 13.257200241088867 9.903829574584961 5.489029407501221 -20.157901763916016 20.339397430419922 -0.0 0.0 -0.0 -0.0 0.0 -0.0 -1.1022899173290801e-13 1.5528099639450232e-12 -1.0515000091612051e-14 48.70529556274414 81.67911529541016 14.548201560974121 -26.370899200439453 -45.51789855957031 94.53189086914062 -47.548397064208984 -80.28341674804688 -55.161197662353516 1.6722999651719306e-09 7.406240065677139e-10 -5.081059462064275e-10 2.8925999373541345e-09 1.4725699548634452e-09 -7.592659279076486e-10 1.6722999651719306e-09 7.406279478594513e-10 -5.081240428417289e-10 7.730909824371338 5.474879741668701 0.4173140823841095 1.6723100682014547e-09 7.406299462608956e-10 -5.081109977211895e-10 2.9055399894714355 0.9651829600334167 0.10290199518203735 1.6723100682014547e-09 7.406260049691582e-10 -5.081159937248003e-10 10.27859878540039 0.73180091381073 0.025912316516041756 1.6722999651719306e-09 7.406270041698804e-10 -5.081129406114826e-10 2.221669912338257 -0.733487069606781 -0.208919957280159 -1.1010899765746818e-13 1.5527899062048323e-12 -1.0643099425324161e-14 -66.83809661865234 7.924150466918945 -34.963294982910156 28.43379783630371 -35.876197814941406 -76.79469299316406 0.4666529595851898 19.046802520751953 -2.7811200618743896 -6.707199240452155e-10 1.8184898031847752e-10 2.3663199177903493e-10 -1.1614098571754994e-09 3.1960400992403493e-10 4.2440295722201427e-10 -6.707500110891829e-10 1.818629968841634e-10 2.3666898996133057e-10 -7.730909824371338 5.474879741668701 -0.4173140823841095 -6.707179811549224e-10 1.818519917984318e-10 2.36629965622015e-10 -2.9055399894714355 0.9651829600334167 -0.10290199518203735 -6.707249755599776e-10 1.818549894005983e-10 2.3663199177903493e-10 -10.27859878540039 0.73180091381073 -0.025912316516041756 -6.707159827534781e-10 1.8185299099915397e-10 2.366219997718133e-10 -2.221669912338257 -0.733487069606781 0.208919957280159 -2.0321699480147914e-16 0.0 -3.8825099822884138e-19 -14.267498970031738 -36.899696350097656 -24.972900390625 -7.07828950881958 83.14665222167969 8.375929832458496 -18.702301025390625 -23.361303329467773 -29.45020294189453 2.0321699480147914e-16 0.0 3.8825099822884138e-19 73.29629516601562 -41.721595764160156 69.78239440917969 2.3387999534606934 70.6281967163086 -2.205019950866699 0.2793939709663391 4.160589694976807 -2.291750192642212
-35.3963 64.1612 -157.845 -162.14198303222656 -65.48690795898438 163.05999755859375 0.04138379171490669 11.130000114440918 13.87569808959961 0.14879398047924042 -13.3243989944458 3.8894100189208984 -0.17313699424266815 13.30720043182373 9.897729873657227 5.372390270233154 -20.18739891052246 20.304000854492188 -0.0 0.0 -0.0 -0.0 0.0 -0.0 3.9051396936041344e-14 2.6483500722290776e-12 3.7709399947245814e-13 49.1038932800293 81.66001892089844 14.156601905822754 -26.373201370239258 -45.51309585571289 94.52189636230469 -47.445796966552734 -80.27131652832031 -55.057098388671875 1.4341400289552553e-09 -4.668029851551125e-10 -1.3006400401138762e-09 2.536870047364914e-09 -5.793789892294399e-10 -2.11222994650484e-09 1.4341400289552553e-09 -4.668009867536682e-10 -1.3006499210987954e-09 7.730909824371338 5.474879741668701 0.4173140823841095 1.4341400289552553e-09 -4.667969899507796e-10 -1.3006400401138762e-09 2.9055399894714355 0.9651829600334167 0.10290199518203735 1.4341499099401744e-09 -4.66799987552946e-10 -1.3006499210987954e-09 10.27859878540039 0.73180091381073 0.025912316516041756 1.4341400289552553e-09 -4.66799987552946e-10 -1.3006400401138762e-09 2.221669912338257 -0.733487069606781 -0.208919957280159 3.905109539231212e-14 2.6483398807286562e-12 3.768339806864418e-13 -66.96869659423828 7.7386908531188965 -34.93019485473633 28.434995651245117 -35.8583984375 -76.75890350341797 0.4613470435142517 18.943300247192383 -2.764819860458374 1.4324600394743925e-09 -1.0875399469867375e-09 -1.7410600738898552e-09 2.4506499052279196e-09 -1.8772299270608528e-09 -3.029100081874958e-09 1.4324499364448684e-09 -1.0875299549795159e-09 -1.7410399788531095e-09 -7.730909824371338 5.474879741668701 -0.4173140823841095 1.4324700314816141e-09 -1.0875399469867375e-09 -1.7410699548747743e-09 -2.9055399894714355 0.9651829600334167 -0.10290199518203735 1.4324600394743925e-09 -1.0875399469867375e-09 -1.7410600738898552e-09 -10.27859878540039 0.73180091381073 -0.025912316516041756 1.4324700314816141e-09 -1.0875399469867375e-09 -1.7410699548747743e-09 -2.221669912338257 -0.733487069606781 0.208919957280159 -2.0321699480147914e-16 0.0 -3.8825099822884138e-19 -14.347298622131348 -36.98460006713867 -25.04290199279785 -7.3798298835754395 83.4022216796875 8.692038536071777 -18.83930015563965 -23.595800399780273 -29.489295959472656 2.0321699480147914e-16 0.0 3.8825099822884138e-19 73.64949798583984 -41.746009826660156 70.0093002319336 2.3951597213745117 70.9552001953125 -2.2616896629333496 0.27078697085380554 4.057090759277344 -2.314199447631836
